<?xml version="1.0" standalone="no"?>
<!DOCTYPE svg PUBLIC "-//W3C//DTD SVG 20010904//EN"
 "http://www.w3.org/TR/2001/REC-SVG-20010904/DTD/svg10.dtd">
<svg version="1.0" xmlns="http://www.w3.org/2000/svg"
 width="435.000000pt" height="378.000000pt" viewBox="0 0 435.000000 378.000000"
 preserveAspectRatio="xMidYMid meet">

<g transform="translate(0.000000,378.000000) scale(0.100000,-0.100000)"
fill="#000000" stroke="none">
<path d="M0 2661 c0 -951 2 -1120 14 -1124 8 -3 17 -3 21 1 4 4 10 7 13 7 4 0
21 10 38 22 38 27 49 59 26 73 -10 5 -14 10 -10 10 4 0 0 16 -8 35 -12 29 -12
43 -2 83 15 60 71 184 102 225 13 18 32 59 41 92 9 33 42 109 72 169 54 107
74 141 225 374 99 153 107 165 114 182 4 8 40 63 80 122 40 59 78 126 84 149
6 23 16 53 22 68 6 14 12 32 14 39 4 19 83 172 121 232 96 152 260 258 475
306 13 3 75 7 138 9 63 2 126 6 140 9 25 6 98 12 229 21 41 3 77 7 79 10 3 3
-452 5 -1011 5 l-1017 0 0 -1119z"/>
<path d="M2291 3776 c2 -2 29 -7 59 -10 72 -7 109 -15 132 -27 10 -5 18 -8 18
-5 0 2 30 -7 68 -21 37 -13 72 -26 77 -27 6 -1 26 -11 45 -22 58 -33 113 -50
158 -48 23 1 42 -1 42 -5 0 -4 10 -7 22 -8 24 -2 62 -39 71 -69 3 -10 8 -37
12 -58 9 -61 17 -90 29 -106 7 -8 20 -32 31 -52 10 -20 29 -41 42 -47 13 -6
23 -15 23 -19 0 -11 -73 -22 -146 -22 -44 0 -54 3 -59 20 -3 11 -30 43 -60 72
-75 74 -120 115 -112 102 4 -7 1 -14 -7 -17 -8 -3 -16 2 -19 14 -3 11 -14 19
-27 19 -14 0 -19 -4 -14 -12 5 -9 4 -10 -3 -3 -6 6 -13 29 -17 52 -6 39 -4 43
18 49 29 7 36 21 25 51 -7 18 -18 22 -76 27 -37 2 -86 7 -109 9 -44 5 -91 -17
-62 -28 9 -4 14 -17 13 -35 -1 -17 2 -30 7 -30 4 0 8 -5 8 -11 0 -5 -5 -7 -10
-4 -6 3 -18 -2 -28 -11 -16 -17 -16 -18 1 -11 9 3 17 2 17 -3 0 -6 -4 -10 -9
-10 -5 0 -12 -8 -15 -17 -3 -10 7 -3 22 15 16 17 34 32 40 32 7 0 12 5 12 11
0 5 -4 8 -9 4 -16 -9 -21 11 -7 30 15 21 38 12 29 -12 -5 -13 -2 -15 15 -11
16 4 22 2 22 -9 0 -9 6 -13 15 -10 8 4 17 2 21 -4 3 -6 12 -8 20 -5 15 6 38
-27 26 -39 -4 -3 -7 -10 -8 -13 0 -4 -11 -29 -24 -57 -24 -51 -48 -77 -62 -68
-12 7 -21 -24 -12 -39 15 -23 13 -40 -2 -34 -8 3 -12 2 -9 -3 3 -5 1 -12 -5
-16 -5 -3 -10 -11 -10 -16 0 -6 5 -7 10 -4 6 3 10 1 10 -4 0 -6 -25 -12 -57
-13 -192 -5 -226 -8 -373 -35 -91 -16 -170 -45 -170 -62 0 -6 -6 -11 -14 -11
-8 0 -32 -21 -54 -47 -34 -41 -41 -45 -53 -32 -8 8 -15 21 -17 29 -2 8 -8 18
-14 21 -5 3 -10 9 -9 12 0 4 -7 23 -15 43 -12 29 -17 34 -29 24 -16 -13 -19
-8 -15 24 1 10 -3 15 -9 12 -12 -8 -5 64 8 77 12 12 -4 66 -24 81 -8 6 -18 25
-21 41 -5 30 -44 75 -64 75 -5 0 -10 5 -10 11 0 6 -7 9 -15 5 -8 -3 -15 -1
-15 5 0 6 -5 7 -11 3 -8 -4 -9 0 -4 15 6 19 4 20 -17 12 -13 -4 -32 -5 -43 -1
-19 7 -19 7 4 15 26 8 18 20 -21 29 -23 5 -28 3 -28 -11 -1 -16 -2 -16 -15 1
-12 16 -18 17 -27 8 -7 -7 -29 -12 -49 -12 -21 0 -45 -7 -53 -16 -13 -12 -16
-13 -16 -2 0 8 -7 23 -15 34 -9 11 -13 13 -10 4 4 -11 -7 -19 -37 -28 -40 -13
-43 -12 -61 10 -17 21 -18 21 -14 3 2 -11 -2 -26 -9 -33 -10 -9 -13 -7 -16 11
-2 12 -7 20 -13 17 -5 -2 -8 -11 -7 -19 3 -12 1 -13 -11 -3 -11 9 -18 8 -32
-8 -10 -11 -14 -20 -9 -20 5 0 4 -4 -2 -8 -6 -4 -19 -22 -28 -39 -9 -18 -24
-33 -32 -33 -14 0 -15 -2 -3 -17 8 -9 9 -14 4 -11 -6 4 -17 2 -25 -3 -12 -7
-12 -11 -2 -17 9 -6 7 -13 -7 -29 -11 -11 -17 -24 -14 -27 4 -3 -2 -6 -13 -6
-15 0 -16 -2 -4 -9 8 -6 17 -8 21 -5 4 2 9 -1 11 -8 3 -7 11 2 18 19 8 17 18
29 22 27 5 -3 5 -10 2 -16 -4 -7 -2 -8 4 -4 7 4 12 2 12 -5 0 -7 3 -9 6 -6 4
4 2 12 -3 19 -15 19 -12 50 4 44 7 -3 12 -2 12 2 -3 19 2 25 11 12 10 -17 41
-20 52 -5 5 6 8 5 8 -3 0 -10 5 -10 23 -1 12 7 26 18 30 25 4 8 13 14 19 14 6
0 5 -7 -3 -17 -12 -15 -12 -16 4 -10 11 4 30 10 43 13 13 3 24 12 24 20 0 7
13 20 30 29 32 17 54 20 30 5 -12 -8 -9 -12 18 -22 32 -12 41 -31 22 -43 -6
-4 -8 -10 -6 -14 3 -4 -5 -8 -17 -8 -12 -1 -29 -12 -39 -25 l-17 -23 5 25 c4
19 2 18 -10 -7 -9 -21 -22 -33 -35 -33 -20 0 -111 -86 -111 -106 0 -6 7 -11
15 -11 8 0 15 5 15 10 0 5 12 7 26 4 21 -4 25 -1 21 13 -3 13 0 17 9 13 8 -3
14 0 14 7 0 7 7 10 15 6 8 -3 15 -1 15 4 0 6 4 10 9 10 5 0 7 -9 4 -20 -3 -12
0 -20 6 -20 7 0 9 -6 6 -12 -4 -7 3 -2 14 12 11 14 21 28 21 33 0 4 5 7 10 7
7 0 7 -6 1 -18 -5 -10 -11 -30 -13 -45 -2 -14 -7 -29 -11 -33 -4 -4 -4 -18 -1
-30 4 -14 2 -24 -5 -24 -6 0 -7 7 -4 17 6 15 5 16 -9 3 -14 -13 -14 -16 -2
-23 8 -5 12 -12 9 -17 -7 -12 -40 -4 -38 9 2 6 -2 11 -9 11 -6 0 -3 9 7 20 10
11 15 20 11 20 -4 0 -2 9 4 20 6 11 9 20 7 20 -9 0 -52 -42 -52 -51 0 -5 -3
-9 -7 -9 -5 0 -13 0 -18 0 -6 0 -10 8 -8 18 2 10 -2 16 -11 14 -8 -2 -18 3
-22 10 -7 10 -9 10 -9 1 0 -7 -6 -13 -14 -13 -8 0 -18 -4 -21 -10 -4 -7 3 -7
19 0 22 8 28 6 38 -10 7 -11 18 -20 25 -20 7 0 13 -5 13 -11 0 -5 -4 -7 -10
-4 -5 3 -10 -1 -10 -9 0 -10 -6 -13 -17 -9 -11 4 -12 8 -5 11 7 2 12 8 12 14
0 6 -7 7 -16 4 -12 -5 -14 -3 -8 7 5 7 -3 -1 -18 -18 -15 -16 -28 -39 -30 -49
-5 -33 -25 -29 -33 6 -4 18 -9 27 -12 20 -2 -6 -9 -10 -14 -6 -5 3 -9 0 -9 -6
0 -6 -8 -19 -17 -28 -13 -13 -17 -14 -21 -4 -3 10 -8 8 -18 -6 -7 -11 -22 -22
-32 -24 -16 -4 -19 -1 -15 16 2 11 -4 3 -13 -18 -12 -28 -14 -41 -6 -44 8 -2
8 -10 0 -28 -6 -13 -14 -24 -17 -24 -6 0 -8 -16 -14 -92 -1 -16 -8 -28 -15
-28 -8 0 -12 -6 -10 -12 3 -7 -2 -19 -9 -26 -10 -10 -11 -18 -3 -27 8 -10 7
-13 -6 -11 -9 0 -19 -5 -21 -11 -3 -7 3 -13 14 -14 16 0 16 -1 -2 -9 -12 -5
-14 -9 -6 -9 11 -1 10 -5 -5 -17 -18 -15 -18 -15 6 -10 22 4 23 4 8 -8 -14
-10 -16 -19 -9 -43 5 -19 5 -36 -1 -44 -7 -10 -8 -9 -3 6 5 17 3 17 -19 -4
-15 -14 -26 -21 -26 -17 0 5 -7 3 -15 -4 -8 -7 -12 -16 -9 -22 3 -5 -2 -20
-11 -34 -16 -25 -18 -49 -15 -184 2 -98 35 -166 95 -198 12 -6 26 -21 32 -34
22 -44 46 -103 45 -110 -1 -5 2 -8 6 -8 5 0 7 -14 6 -32 -3 -36 4 -58 18 -58
5 0 6 5 3 11 -4 5 -8 21 -10 35 -2 19 0 22 11 13 8 -6 14 -16 14 -21 0 -5 14
-21 30 -35 17 -13 28 -29 24 -34 -3 -5 -2 -9 3 -9 4 0 23 -13 41 -28 30 -26
68 -40 57 -21 -3 4 9 12 25 18 18 6 35 21 41 38 l12 28 13 -50 c7 -27 14 -74
16 -105 2 -40 7 -55 18 -55 9 0 15 -11 17 -28 1 -18 -2 -25 -9 -21 -7 4 -8 2
-4 -5 6 -9 11 -9 21 -1 11 9 13 7 9 -14 -2 -14 -1 -26 4 -26 4 0 16 -14 26
-30 9 -17 21 -28 26 -25 10 6 0 -36 -13 -52 -7 -9 -5 -13 6 -13 9 0 28 -10 43
-23 24 -21 25 -25 10 -30 -11 -5 -15 -3 -10 5 4 7 3 8 -4 4 -12 -7 -12 -66 1
-66 4 0 7 -9 7 -20 0 -12 -7 -20 -16 -20 -10 0 -14 6 -11 15 4 8 2 17 -2 20
-5 2 -11 -5 -15 -18 -9 -33 -8 -37 9 -37 8 0 15 -9 15 -20 0 -11 7 -20 15 -20
8 0 15 -3 16 -7 3 -30 4 -63 2 -63 -1 0 -9 12 -17 28 l-15 27 -1 -27 c0 -15 7
-34 16 -42 14 -15 14 -16 0 -16 -9 0 -16 6 -16 13 0 8 -4 7 -10 -3 -5 -8 -10
-10 -10 -5 0 6 -5 3 -10 -5 -8 -12 -10 -8 -11 15 -1 17 -3 22 -6 13 -6 -22
-23 -24 -23 -3 0 9 -7 18 -15 21 -8 4 -15 12 -15 19 0 8 -5 17 -12 21 -8 5 -9
1 -4 -12 5 -14 4 -16 -4 -8 -6 6 -12 20 -15 32 -2 12 -8 30 -14 39 -9 15 -10
12 -7 -14 3 -29 1 -31 -15 -22 -11 5 -19 13 -19 17 0 7 -42 30 -118 65 -19 9
-32 11 -32 5 0 -6 -5 -7 -13 -2 -7 5 -4 1 6 -8 11 -10 25 -18 33 -18 17 0 19
-17 2 -22 -7 -3 9 -13 35 -24 26 -10 47 -25 47 -33 0 -9 -6 -11 -17 -6 -10 4
-29 11 -43 15 -14 4 -51 19 -82 34 -44 20 -56 30 -52 44 4 12 3 13 -3 4 -10
-13 -43 -6 -43 9 0 5 -10 9 -22 9 -34 1 -140 58 -202 110 -52 42 -67 62 -65
85 0 5 -7 12 -17 15 -22 8 -28 46 -9 54 8 3 17 1 20 -5 4 -5 10 -7 15 -4 5 3
11 1 14 -4 4 -5 1 -13 -5 -17 -6 -3 -7 -9 -2 -13 5 -3 18 -19 30 -34 21 -27
22 -27 32 -8 8 13 8 22 1 26 -6 4 -8 10 -5 15 3 5 1 20 -4 34 -8 20 -15 24
-35 20 -20 -3 -24 -1 -20 11 5 11 2 13 -12 8 -12 -4 -15 -3 -10 5 4 7 2 12 -6
12 -8 0 -9 3 -3 8 11 7 12 48 3 58 -3 3 -18 7 -33 10 -15 3 -37 16 -48 30 -10
14 -22 23 -24 20 -7 -7 -52 60 -75 112 -17 38 -22 42 -36 30 -13 -11 -15 -11
-9 4 4 11 2 17 -6 15 -6 -1 -13 8 -15 21 -2 12 -9 22 -16 22 -8 0 -16 19 -20
50 -5 38 -11 50 -24 50 -20 -1 -54 -24 -46 -33 11 -11 11 -42 0 -49 -6 -5 -2
-8 11 -8 26 0 41 -19 24 -29 -7 -5 -10 -21 -6 -42 5 -30 15 -43 72 -89 7 -6
10 -17 7 -25 -5 -12 -9 -12 -30 2 -17 11 -24 12 -24 3 0 -7 -7 -10 -16 -6 -8
3 -12 2 -9 -4 3 -5 8 -19 10 -29 3 -14 -1 -18 -11 -14 -8 3 -14 14 -14 25 0
10 -4 16 -10 13 -5 -3 -10 -1 -10 4 0 14 -36 9 -52 -7 -9 -9 -7 -16 9 -30 12
-9 23 -31 24 -47 3 -24 -1 -32 -23 -43 -38 -18 -37 -56 4 -140 24 -52 54 -88
131 -164 55 -54 103 -98 106 -98 3 0 20 -12 36 -28 17 -15 48 -40 70 -56 22
-17 42 -33 45 -36 16 -20 226 -142 350 -204 192 -95 291 -137 494 -212 145
-54 172 -76 181 -149 4 -32 3 -60 -4 -72 -7 -12 -10 -14 -11 -4 0 8 -3 12 -6
9 -7 -8 -126 40 -139 55 -6 7 -17 13 -25 14 -8 2 -4 -5 10 -15 13 -9 32 -24
41 -33 9 -9 42 -28 74 -43 57 -26 58 -27 40 -46 -10 -11 -13 -20 -7 -20 7 0
12 -5 12 -10 0 -11 -7 -14 -53 -24 -17 -4 -25 -11 -21 -18 5 -7 -2 -9 -20 -6
-14 3 -26 2 -26 -3 0 -4 -3 -15 -7 -25 -4 -12 -3 -15 5 -10 7 4 13 1 13 -8 1
-9 2 -22 3 -28 3 -17 -24 -49 -35 -42 -5 3 -6 -1 -3 -9 6 -17 -22 -31 -32 -15
-5 7 -2 8 6 3 9 -6 11 -4 5 4 -4 7 -16 10 -27 8 -33 -9 -304 115 -293 133 3 5
0 7 -7 5 -14 -6 -157 79 -235 138 -23 18 -54 41 -69 52 -109 80 -319 293 -417
424 -75 99 -77 104 -61 122 9 11 23 19 31 19 12 0 15 -4 17 -32 2 -21 45 -39
65 -27 13 8 11 9 -9 4 l-25 -6 25 15 c14 9 19 15 12 16 -6 0 -11 3 -10 8 5 13
-35 50 -48 45 -8 -3 -14 1 -14 8 -1 10 -5 8 -14 -4 -9 -12 -16 -14 -21 -8 -3
6 -2 11 3 11 6 0 12 6 15 14 4 9 -6 20 -28 30 -19 9 -38 22 -42 29 -10 15 -43
19 -43 5 0 -5 -11 3 -24 19 -29 35 -86 146 -133 258 l-33 80 0 -762 0 -763
1013 1 c786 0 1006 3 987 12 -34 16 -57 41 -52 55 2 7 -1 12 -7 12 -6 0 -11
12 -11 28 0 22 2 24 11 12 8 -11 9 -7 5 18 -3 19 -1 32 5 32 5 0 9 7 7 16 -2
10 5 18 15 19 9 2 15 -1 12 -5 -3 -5 8 -19 25 -31 16 -13 30 -29 30 -36 0 -7
4 -13 10 -13 5 0 7 6 4 13 -3 8 2 14 11 14 8 0 15 -4 15 -9 0 -13 30 -42 46
-44 8 -1 12 1 9 5 -2 5 12 22 32 40 22 20 32 35 26 39 -20 13 -25 68 -8 82 8
7 15 9 15 6 0 -4 7 -1 15 8 25 24 18 50 -17 65 -32 14 -33 14 -8 18 14 3 34
16 45 29 l20 24 27 -30 c15 -17 25 -30 22 -30 -2 0 0 -8 5 -17 5 -10 11 -32
14 -50 3 -17 8 -37 12 -42 3 -6 1 -11 -5 -11 -7 0 -8 -6 -1 -18 6 -10 6 -24 1
-32 -5 -8 -6 -18 -4 -22 3 -4 1 -8 -4 -8 -4 0 -8 -31 -7 -69 0 -38 -3 -67 -7
-65 -3 2 -9 0 -13 -6 -4 -7 329 -10 1024 -10 l1031 0 0 1890 0 1890 -1032 0
c-567 0 -1029 -2 -1027 -4z m-1211 -296 c0 -5 -2 -10 -4 -10 -3 0 -8 5 -11 10
-3 6 -1 10 4 10 6 0 11 -4 11 -10z m177 -11 c-14 -8 -16 -14 -7 -24 9 -11 6
-20 -16 -40 -15 -14 -32 -25 -38 -25 -6 0 -4 5 5 10 10 6 15 20 13 35 -2 23 0
24 14 13 14 -11 15 -10 9 6 -8 19 6 36 28 36 6 -1 2 -5 -8 -11z m-61 -66 c-11
-11 -19 6 -11 24 8 17 8 17 12 0 3 -10 2 -21 -1 -24z m2554 -18 c-14 -7 -27
-11 -30 -9 -6 7 22 24 40 23 9 0 5 -6 -10 -14z m-1047 -178 c-7 -11 -23 12
-23 33 1 12 4 11 15 -4 8 -10 12 -23 8 -29z m596 -17 c-6 -5 -19 -6 -27 -2
-11 4 -13 2 -7 -9 7 -11 5 -11 -10 1 -11 9 -16 10 -11 3 5 -9 0 -13 -16 -13
-90 -1 -119 -4 -115 -15 3 -6 -5 -12 -16 -13 -18 -1 -19 1 -7 9 12 9 10 10 -7
6 -13 -3 -23 -1 -23 4 0 5 -19 9 -42 9 -65 0 -34 14 45 21 103 9 251 8 236 -1z
m564 -10 c20 -6 54 -14 75 -20 20 -5 71 -13 112 -16 41 -3 84 -10 95 -15 26
-12 -131 -4 -240 11 -44 7 -105 12 -135 13 -43 2 -55 6 -58 20 -3 15 5 17 55
17 32 0 75 -5 96 -10z m-2504 -27 c-7 -10 -14 -19 -15 -21 -1 -2 -4 4 -8 13
-3 9 -2 13 4 10 6 -3 10 -1 10 4 0 6 5 11 11 11 8 0 7 -6 -2 -17z m1133 -24
c-13 -11 -28 -17 -35 -13 -8 5 -7 2 2 -9 12 -15 9 -21 -11 -18 -5 0 -8 -3 -8
-9 0 -5 -10 -10 -23 -10 -20 0 -23 4 -19 30 3 23 0 30 -12 30 -12 0 -15 -6
-10 -24 6 -23 -19 -45 -31 -26 -3 4 -16 7 -29 6 -19 -2 -23 1 -19 18 3 15 2
17 -4 8 -5 -7 -17 -10 -26 -6 -10 3 -17 1 -17 -6 0 -6 5 -8 10 -5 6 3 10 1 10
-4 0 -19 -30 -12 -31 7 -1 16 -2 16 -6 0 -5 -21 -14 -23 -31 -6 -9 9 -12 9
-12 0 0 -7 -9 -12 -19 -12 -14 0 -18 5 -14 18 4 15 23 21 111 31 59 7 112 14
117 16 6 2 37 4 69 4 l60 1 -22 -21z m-1088 -36 c4 -16 0 -20 -15 -16 -21 6
-25 18 -9 28 6 4 7 12 4 18 -5 9 -4 9 5 1 6 -6 13 -20 15 -31z m730 3 c-11 -8
-46 -17 -77 -20 -32 -3 -71 -13 -87 -21 -36 -19 -39 -13 -5 9 29 19 118 44
160 45 28 1 29 0 9 -13z m2139 1 c48 -20 62 -41 42 -61 -9 -9 -27 -16 -41 -16
-19 0 -24 5 -24 26 0 14 -5 34 -10 45 -13 23 -9 23 33 6z m-2528 -7 c3 -5 1
-10 -6 -10 -8 0 -7 -5 2 -17 13 -17 13 -17 -6 -3 -11 8 -22 15 -24 17 -6 3 10
23 19 23 5 0 12 -4 15 -10z m982 -16 c-3 -3 -12 -4 -19 -1 -8 3 -5 6 6 6 11 1
17 -2 13 -5z m193 -14 c4 -7 6 -23 4 -36 -2 -12 0 -26 6 -29 5 -3 10 -11 10
-16 0 -6 -4 -7 -10 -4 -5 3 -10 -1 -10 -9 0 -18 -25 -22 -35 -5 -4 6 -13 8
-20 5 -16 -6 -38 17 -27 30 4 4 0 3 -9 -4 -9 -6 -19 -9 -22 -6 -11 11 3 24 24
24 11 0 18 4 14 9 -3 5 2 16 10 24 8 9 15 20 15 25 0 13 40 7 50 -8z m-1335
-40 c3 -5 -1 -10 -9 -10 -9 0 -16 5 -16 10 0 6 4 10 9 10 6 0 13 -4 16 -10z
m585 -1 c0 -3 12 -4 26 -1 16 3 30 -1 35 -9 6 -9 12 -10 17 -4 4 6 23 10 42 9
51 -2 53 -3 36 -20 -9 -8 -16 -21 -16 -29 0 -9 -7 -11 -22 -7 -14 3 -19 2 -14
-6 4 -7 1 -12 -8 -12 -10 0 -13 6 -9 18 6 15 5 15 -10 3 -11 -8 -17 -9 -17 -3
0 6 9 16 19 22 25 13 41 13 21 0 -13 -8 -13 -10 2 -10 10 0 16 7 15 19 -1 19
-18 18 -43 0 -6 -5 -15 -5 -19 -1 -5 4 -5 1 -1 -5 6 -12 -5 -18 -26 -14 -5 0
-8 -4 -8 -10 0 -6 6 -9 14 -6 8 3 17 0 19 -7 4 -10 -1 -12 -16 -9 -18 4 -19 3
-7 -6 13 -9 12 -11 -3 -11 -12 0 -16 -4 -11 -12 5 -9 2 -9 -9 1 -9 7 -17 9
-17 4 0 -5 -7 -10 -15 -10 -8 0 -15 4 -15 9 0 5 -4 6 -10 3 -5 -3 -10 -16 -10
-27 0 -12 3 -18 7 -15 9 10 35 -31 28 -43 -3 -6 0 -13 9 -16 8 -3 12 -12 9
-20 -4 -10 -9 -12 -16 -5 -6 6 -18 6 -33 -1 -26 -12 -31 -32 -12 -44 7 -4 8
-3 4 4 -4 7 -1 12 8 12 8 0 16 6 19 13 6 16 16 6 20 -22 4 -25 39 -50 72 -51
14 0 16 -3 7 -8 -9 -6 -6 -12 12 -20 21 -9 23 -9 18 10 -3 14 -1 19 6 14 6 -3
13 -3 16 2 3 5 18 7 34 4 17 -2 40 2 53 9 23 12 23 11 9 -6 -14 -17 -14 -17 7
-7 26 14 72 15 92 3 9 -6 22 -6 33 0 12 7 18 6 18 -2 0 -7 12 -10 30 -7 17 3
30 1 30 -4 0 -4 -4 -8 -10 -8 -21 0 -9 -18 15 -22 14 -3 25 -1 25 4 0 5 9 4
19 -1 14 -8 22 -7 31 4 9 11 9 15 1 15 -6 0 -11 -5 -11 -11 0 -5 -5 -7 -11 -4
-15 10 19 31 59 37 l33 5 -30 -30 c-16 -17 -40 -31 -53 -33 -13 -1 -24 -3 -25
-4 -2 -2 -9 -3 -15 -4 -7 0 -13 -13 -14 -28 -1 -15 3 -25 8 -22 6 4 8 14 5 24
-4 16 -1 17 19 10 14 -6 24 -6 24 0 0 5 18 8 41 8 22 0 45 4 51 10 6 6 17 8
26 5 9 -4 13 -2 9 4 -4 6 1 10 11 9 12 -1 16 5 15 22 -2 12 2 22 7 22 6 0 10
7 10 15 0 8 -8 15 -17 15 -15 0 -16 2 -3 10 11 7 17 4 24 -10 12 -26 22 -25
29 1 4 13 10 18 18 13 8 -5 10 -3 4 6 -6 10 -4 12 10 6 15 -6 16 -4 5 10 -11
13 -11 17 0 24 8 5 15 21 18 37 5 37 8 39 30 20 25 -23 35 -21 27 3 -4 11 -2
20 4 20 6 0 11 -5 11 -11 0 -8 4 -8 13 -1 18 15 79 3 73 -15 -3 -8 -1 -11 4
-8 6 4 13 -7 16 -24 4 -18 11 -28 18 -25 6 3 2 -2 -8 -10 -23 -19 -46 -22 -28
-4 7 7 12 16 12 20 0 4 -9 -1 -20 -12 -11 -11 -24 -20 -30 -20 -5 0 -10 -7
-10 -15 0 -7 -7 -18 -16 -23 -13 -7 -10 -9 12 -9 16 0 38 -3 49 -8 18 -8 19
-7 6 8 -7 9 -20 17 -28 17 -8 0 -13 5 -11 12 6 17 29 23 26 6 -2 -7 5 -12 15
-12 9 1 17 -3 17 -8 0 -6 9 -8 21 -5 17 5 20 2 16 -13 -4 -14 1 -17 24 -16 25
2 27 0 15 -13 -19 -22 -9 -46 11 -26 20 20 28 19 30 -5 1 -11 -2 -18 -8 -15
-5 4 -9 2 -9 -3 0 -16 13 -22 27 -11 14 12 16 8 13 -33 -1 -19 3 -28 14 -28
10 0 13 -8 11 -30 -3 -21 0 -30 10 -30 8 0 15 -4 15 -9 0 -5 7 -12 16 -15 15
-6 13 4 -10 33 -13 17 -17 43 -5 35 5 -3 7 -10 4 -15 -4 -5 10 -18 29 -30 37
-21 47 -33 22 -23 -9 3 -17 -3 -21 -17 -6 -17 -9 -19 -16 -8 -6 10 -9 8 -9 -8
0 -13 -6 -23 -14 -23 -20 0 -27 -26 -15 -58 21 -56 34 -82 42 -82 5 0 6 -4 3
-8 -2 -4 -1 -14 4 -22 8 -13 11 -13 22 -1 8 9 9 11 1 7 -6 -3 -14 -2 -18 4 -3
5 1 10 11 10 9 0 23 8 31 18 10 13 10 9 -2 -15 -8 -18 -22 -36 -30 -40 -8 -5
-16 -20 -19 -33 -2 -14 -5 -27 -6 -30 -2 -3 -2 -8 -1 -12 0 -5 -4 -8 -10 -8
-5 0 -7 -4 -4 -10 3 -5 1 -10 -6 -10 -16 0 -3 -13 16 -16 13 -2 20 15 16 39 0
4 3 7 8 7 15 0 25 -42 11 -50 -8 -5 -7 -9 4 -13 9 -4 16 -2 16 4 0 6 5 7 10 4
15 -9 12 -25 -5 -25 -8 0 -15 -5 -15 -10 0 -6 -6 -10 -12 -8 -15 3 -60 -20
-70 -36 -4 -6 -1 -17 5 -25 10 -12 9 -13 -1 -7 -8 5 -21 1 -32 -9 -10 -9 -25
-15 -32 -12 -8 3 -3 9 13 15 27 11 45 47 28 58 -5 3 -8 2 -7 -3 2 -4 -1 -9 -5
-10 -4 -1 -16 -12 -26 -24 -10 -12 -23 -19 -28 -16 -12 7 -6 44 7 52 5 3 6 -5
2 -17 -4 -19 1 -16 32 15 38 39 41 61 6 39 -13 -8 -21 -8 -25 -1 -8 13 -30 6
-31 -9 -1 -7 -2 -16 -3 -21 -1 -11 -27 -8 -38 4 -4 4 -3 5 3 2 7 -4 14 0 18 8
6 17 -19 21 -30 4 -4 -8 -9 -8 -13 -1 -3 6 -11 0 -18 -14 -11 -23 -10 -24 18
-19 16 3 29 1 29 -5 0 -5 7 -7 15 -4 8 4 15 2 15 -4 0 -6 -11 -9 -25 -8 -30 4
-50 -17 -40 -41 6 -16 8 -15 24 6 12 16 24 22 35 18 33 -13 15 -33 -69 -76
-45 -24 -97 -66 -90 -73 8 -7 -112 -1 -125 7 -5 3 -10 0 -10 -7 0 -7 -14 2
-30 20 -17 18 -30 27 -30 20 0 -8 -5 -5 -11 5 -9 15 -12 16 -25 2 -20 -19 -40
-9 -23 11 10 13 8 13 -15 4 -15 -5 -33 -7 -39 -3 -7 4 -5 -2 3 -12 9 -11 10
-16 3 -11 -8 4 -13 2 -13 -6 0 -9 -3 -9 -10 2 -8 12 -10 12 -10 1 0 -11 -3
-11 -17 0 -12 10 -15 11 -9 1 6 -9 1 -11 -18 -8 -15 3 -24 1 -21 -5 4 -5 3 -9
-2 -10 -48 -6 -65 -4 -72 8 -4 8 -11 14 -14 14 -35 -5 -46 0 -42 20 5 27 22
47 46 54 28 9 23 24 -5 19 -14 -2 -28 1 -32 7 -4 7 -3 9 4 5 6 -3 13 -2 17 4
5 9 -6 14 -26 12 -3 -1 -6 6 -6 13 0 9 4 11 11 6 18 -14 45 -9 39 7 -4 8 -8
10 -12 3 -4 -6 -12 -6 -20 -1 -8 4 -20 6 -28 3 -24 -9 -14 15 18 41 28 24 29
26 9 26 -25 0 -22 19 6 34 10 6 21 12 23 13 2 2 -1 9 -7 16 -12 14 -6 27 12
27 6 0 4 -5 -4 -10 -8 -5 -10 -10 -5 -10 13 0 43 20 30 20 -5 0 -3 5 5 11 12
9 11 10 -6 6 -12 -2 -28 -1 -35 4 -9 5 6 7 36 5 l50 -3 -37 16 c-28 12 -36 21
-34 36 2 11 8 19 14 18 11 -3 9 17 -4 51 -4 12 -4 17 2 13 6 -3 15 3 22 14 16
25 -3 26 -37 3 -22 -16 -23 -16 -12 5 6 11 24 27 39 35 15 9 23 15 18 16 -5 0
-3 6 3 14 9 11 6 12 -15 8 -17 -3 -25 -1 -21 5 4 6 23 14 42 17 27 5 35 12 35
28 0 15 4 18 17 14 10 -4 14 -4 10 0 -4 4 -1 14 6 22 10 12 6 12 -20 -1 -33
-18 -58 -23 -34 -8 10 7 11 13 2 27 -6 11 -11 13 -11 6 0 -12 -40 -8 -65 7
-19 11 -34 9 -47 -7 -11 -13 -10 -15 4 -9 22 8 50 -2 42 -14 -3 -5 0 -9 6 -9
6 0 8 -5 4 -11 -5 -8 -9 -8 -14 1 -6 9 -12 9 -29 -1 -11 -8 -21 -17 -21 -22 0
-4 -4 -6 -8 -3 -5 3 -9 -1 -9 -9 0 -8 6 -15 14 -15 7 0 13 -5 13 -11 0 -6 -7
-8 -16 -5 -9 4 -13 2 -8 -5 4 -6 0 -16 -7 -21 -11 -7 -11 -11 -2 -15 10 -3 10
-10 -2 -26 -27 -38 -18 -48 22 -26 27 15 33 17 24 5 -7 -9 -21 -16 -30 -16
-14 0 -14 -2 -1 -10 14 -9 13 -11 -9 -14 -19 -2 -24 -16 -6 -16 14 0 10 -6
-16 -25 -19 -14 -34 -31 -34 -38 0 -7 -4 -15 -10 -19 -6 -5 -5 -11 3 -17 11
-7 10 -9 -3 -14 -10 -4 -14 -3 -9 4 4 7 0 9 -14 5 -34 -11 -70 28 -68 73 1 33
-2 37 -19 34 -12 -3 -16 -1 -10 4 14 12 17 40 5 48 -5 3 -10 0 -10 -8 0 -8
-11 -17 -25 -19 -31 -6 -32 4 -2 26 21 16 21 16 0 6 -12 -5 -30 -21 -41 -35
-11 -13 -22 -21 -26 -18 -3 3 -6 -3 -6 -15 0 -23 22 -42 28 -24 2 7 8 12 13
12 6 0 6 -8 -1 -19 -14 -28 -12 -36 5 -21 22 18 20 -8 -4 -44 -18 -26 -20 -27
-30 -10 -6 11 -11 13 -11 7 0 -7 -5 -13 -11 -13 -6 0 -9 7 -5 15 3 8 1 15 -4
15 -6 0 -10 5 -10 11 0 6 6 9 13 6 16 -6 21 39 5 49 -7 5 -8 3 -3 -6 5 -8 3
-11 -6 -8 -8 3 -13 17 -12 34 2 26 1 27 -11 12 -18 -24 -29 -23 -16 1 7 13 7
22 0 26 -5 3 -10 1 -10 -4 0 -6 -7 -11 -15 -11 -25 0 -17 22 23 59 20 20 38
44 38 54 2 26 -15 21 -26 -8 -5 -14 -17 -25 -25 -25 -9 0 -18 -7 -21 -15 -9
-23 -22 -18 -40 18 -9 17 -21 35 -27 39 -7 4 -6 12 4 24 8 10 9 15 2 11 -7 -5
-17 2 -24 15 -7 12 -18 29 -26 36 -7 7 -13 20 -13 28 0 8 -4 14 -10 14 -5 0
-10 9 -10 20 0 11 -4 20 -9 20 -5 0 -11 8 -15 18 -3 9 -11 25 -18 35 -11 14
-10 19 2 27 13 8 12 10 -3 10 -10 0 -15 5 -12 10 3 6 1 10 -5 10 -6 0 -8 5 -4
12 4 6 10 29 14 50 8 43 -7 52 -28 17 -8 -12 -9 -18 -4 -15 6 4 6 -6 -1 -23
-13 -36 -27 -31 -23 7 1 15 -5 32 -14 39 -13 11 -13 12 3 13 10 0 17 6 16 13
-7 44 69 124 161 168 43 21 200 35 200 18z m-1116 -32 c5 -29 -9 -38 -16 -9
-5 17 1 46 7 40 2 -2 6 -16 9 -31z m723 27 c-3 -3 -12 -4 -19 -1 -8 3 -5 6 6
6 11 1 17 -2 13 -5z m13 -69 c-7 -9 -15 -13 -18 -10 -3 2 1 11 8 20 7 9 15 13
18 10 3 -2 -1 -11 -8 -20z m450 -35 c0 -5 -5 -10 -11 -10 -5 0 -7 5 -4 10 3 6
8 10 11 10 2 0 4 -4 4 -10z m-84 -39 c-4 -5 -1 -12 4 -14 6 -3 5 -4 -2 -3 -15
3 -23 26 -8 26 6 0 9 -4 6 -9z m58 -92 c-3 -5 -17 -9 -31 -9 -21 0 -23 3 -14
14 12 15 55 10 45 -5z m2026 2 c0 -15 -17 -22 -36 -14 -16 6 -16 7 2 14 27 11
34 10 34 0z m-1885 -20 c-5 -16 -2 -18 15 -14 11 3 20 1 20 -3 0 -5 -16 -10
-35 -11 -29 -3 -35 0 -35 16 0 11 8 22 18 24 9 3 18 5 20 6 2 0 1 -8 -3 -18z
m-140 -39 c-2 -3 -17 -1 -32 3 l-28 8 25 7 c22 6 46 -7 35 -18z m240 12 c-9
-10 -22 -13 -33 -9 -14 7 -13 9 8 15 39 12 43 11 25 -6z m326 -1 c-5 -10 -10
-22 -11 -28 -6 -23 -12 -34 -26 -39 -12 -5 -12 -2 -2 17 7 12 11 26 10 31 -2
4 5 14 15 22 24 18 25 17 14 -3z m1503 -66 c-2 -7 -7 -31 -9 -52 -9 -71 -10
-80 -18 -92 -5 -7 -5 -17 -2 -23 3 -5 1 -10 -5 -10 -6 0 -9 -4 -6 -8 3 -5 -4
-21 -15 -38 -19 -29 -19 -29 -19 -5 0 21 -4 18 -30 -22 -16 -26 -35 -47 -41
-47 -6 0 -9 -7 -5 -15 3 -8 1 -15 -4 -15 -6 0 -10 -8 -10 -17 -1 -17 -1 -17
-11 -1 -10 19 1 49 28 76 16 16 17 29 3 37 -17 10 -11 27 8 21 12 -4 21 4 33
32 8 20 23 54 32 75 9 21 17 47 17 58 0 11 4 18 8 15 5 -3 15 6 22 19 14 26
33 35 24 12z m-947 -122 c0 -8 -4 -12 -9 -9 -5 3 -6 10 -3 15 9 13 12 11 12
-6z m-828 -54 c9 -6 6 -8 -13 -8 -14 0 -23 3 -20 8 7 11 15 11 33 0z m86 -1
c4 -6 -6 -10 -22 -10 -22 0 -25 2 -13 10 19 12 27 12 35 0z m-55 -60 c12 -8 9
-10 -12 -10 -16 0 -28 5 -28 10 0 13 20 13 40 0z m775 -67 c-2 -10 -4 -25 -4
-32 -1 -11 -4 -12 -12 -4 -8 8 -8 17 0 32 14 26 20 27 16 4z m783 -64 c10 -3
7 -11 -9 -29 -17 -20 -21 -21 -15 -6 4 11 2 22 -5 27 -6 4 -8 12 -4 19 4 7 10
8 14 3 3 -6 12 -12 19 -14z m-44 -24 c3 -8 1 -15 -4 -15 -6 0 -10 7 -10 15 0
8 2 15 4 15 2 0 6 -7 10 -15z m-460 -50 c-4 -8 -11 -15 -16 -15 -6 0 -5 6 2
15 7 8 14 15 16 15 2 0 1 -7 -2 -15z m-249 -35 c3 -5 1 -10 -4 -10 -6 0 -11 5
-11 10 0 6 2 10 4 10 3 0 8 -4 11 -10z m185 -38 c0 -10 -14 -33 -31 -52 l-30
-35 27 53 c30 57 34 61 34 34z m-1370 -2 c0 -5 -5 -10 -11 -10 -5 0 -7 5 -4
10 3 6 8 10 11 10 2 0 4 -4 4 -10z m41 -18 c-5 -10 -17 -24 -25 -32 -23 -18
-22 7 1 32 21 23 37 23 24 0z m46 -32 c-2 -11 -7 -23 -12 -27 -4 -5 -5 -2 -1
5 4 7 1 12 -8 12 -17 0 -21 12 -9 23 14 14 33 6 30 -13z m-18 -60 c-18 -12
-34 4 -25 25 5 15 7 15 23 0 14 -14 14 -18 2 -25z m10 -41 c-8 -5 -21 -9 -29
-9 -12 1 -11 4 4 15 10 8 23 12 29 8 5 -3 3 -9 -4 -14z m883 -11 c-7 -7 -12
-8 -12 -2 0 14 12 26 19 19 2 -3 -1 -11 -7 -17z m-842 -18 c0 -5 -5 -10 -11
-10 -5 0 -7 5 -4 10 3 6 8 10 11 10 2 0 4 -4 4 -10z m-38 -32 c-7 -7 -12 -8
-12 -2 0 6 3 14 7 17 3 4 9 5 12 2 2 -3 -1 -11 -7 -17z m-1144 -158 c27 -25
27 -26 1 -33 -12 -3 -18 -3 -15 0 3 3 -1 12 -9 20 -33 33 -11 45 23 13z m1694
-8 c11 -11 -1 -44 -13 -36 -5 3 -9 0 -9 -5 0 -6 7 -11 15 -11 8 0 14 -5 13
-12 -2 -7 7 -13 20 -14 12 -1 26 -5 30 -9 4 -5 0 -6 -9 -3 -9 4 -16 1 -16 -7
0 -7 6 -11 14 -8 26 10 13 -7 -18 -23 -41 -21 -119 -30 -119 -13 0 8 -4 8 -15
-1 -10 -9 -15 -9 -15 -1 0 6 -10 11 -22 11 -23 1 -23 1 -3 16 19 16 19 16 -5
8 -14 -4 -31 -7 -37 -7 -10 0 -10 -4 -1 -14 8 -11 7 -12 -6 -7 -9 3 -16 11
-16 17 0 6 -8 3 -17 -6 -16 -16 -16 -19 -3 -27 20 -13 33 -13 25 0 -10 16 1
11 16 -7 10 -11 10 -14 2 -9 -7 4 -13 3 -13 -2 0 -6 -9 -8 -20 -5 -11 3 -28
-1 -37 -8 -15 -12 -16 -12 -11 8 4 13 2 26 -4 29 -5 3 -7 12 -4 20 3 8 2 14
-3 14 -9 0 -38 -31 -33 -37 9 -13 -2 -20 -28 -18 -20 2 -27 -1 -23 -9 8 -12
12 -76 5 -76 -3 0 -11 8 -18 18 -9 12 -13 13 -14 3 0 -9 -8 -11 -26 -7 -29 8
-56 -8 -48 -29 3 -7 1 -16 -5 -20 -10 -5 -15 7 -12 27 0 4 -6 5 -14 2 -11 -4
-12 -11 -5 -24 7 -14 4 -20 -17 -29 -24 -11 -25 -10 -13 4 11 13 10 15 -4 9
-12 -5 -15 -2 -10 10 7 18 63 52 78 47 5 -1 4 5 -4 13 -10 13 -10 19 1 33 10
11 10 14 2 9 -7 -4 -13 -2 -13 3 0 6 6 11 13 12 9 0 9 2 -1 6 -10 4 -8 9 6 19
13 9 18 21 15 34 -4 14 1 22 20 29 14 5 31 19 39 30 8 12 17 18 21 15 3 -3 12
-2 19 2 22 14 38 13 38 -3 0 -14 3 -13 21 3 18 16 22 17 32 4 13 -16 42 -26
33 -12 -6 10 63 34 75 26 5 -3 17 4 27 14 14 14 30 18 67 16 26 -2 52 -7 57
-12z m-2495 -101 c2 -20 -11 -22 -37 -6 -12 7 -10 10 10 16 14 4 25 7 25 8 1
1 1 -8 2 -18z m207 -47 c23 -23 20 -24 -14 -8 -16 9 -30 17 -30 20 0 10 30 2
44 -12z m-224 2 c0 -3 -4 -8 -10 -11 -5 -3 -10 -1 -10 4 0 6 5 11 10 11 6 0
10 -2 10 -4z m2195 -48 c5 4 5 1 1 -6 -11 -18 -29 -10 -32 14 -3 18 -2 18 10
2 7 -10 17 -14 21 -10z m-890 -18 c3 -5 2 -10 -4 -10 -5 0 -13 5 -16 10 -3 6
-2 10 4 10 5 0 13 -4 16 -10z m965 -11 c0 -14 -17 -10 -23 5 -4 10 -1 13 9 9
7 -3 14 -9 14 -14z m-921 -23 c12 -9 13 -8 6 3 -6 11 -4 13 8 8 10 -3 17 -2
17 3 0 6 4 10 10 10 5 0 7 -7 3 -16 -5 -14 -1 -16 20 -12 32 6 56 -7 41 -22
-7 -7 -21 -6 -47 5 -27 11 -37 12 -37 3 0 -6 -8 -20 -17 -31 -10 -11 -12 -17
-5 -13 6 4 12 2 12 -3 0 -6 -3 -11 -7 -11 -12 0 -35 16 -34 24 3 23 0 30 -7
19 -10 -15 -52 -5 -52 12 0 7 6 16 13 18 7 3 4 6 -6 6 -10 1 -16 5 -12 10 7
12 75 2 94 -13z m848 8 c-3 -3 -12 -4 -19 -1 -8 3 -5 6 6 6 11 1 17 -2 13 -5z
m-2225 -49 c-3 -5 1 -4 10 3 13 10 18 9 29 -5 8 -9 9 -14 3 -10 -7 4 -17 0
-24 -8 -17 -21 -30 -9 -30 28 0 23 3 28 9 17 6 -8 7 -19 3 -25z m1535 15 c0
-9 -11 -17 -24 -18 -25 -2 -26 -1 -17 21 7 20 43 17 41 -3z m-1160 -17 c-4 -3
-1 -13 6 -22 11 -14 10 -14 -5 -2 -21 15 -23 31 -6 31 6 0 8 -3 5 -7z m1102
-13 c13 -6 29 -9 37 -6 22 8 16 -8 -12 -35 -14 -13 -25 -19 -24 -14 5 25 -2
32 -31 29 -37 -5 -57 5 -38 17 11 7 10 9 -4 9 -10 0 -15 5 -12 10 8 13 53 7
84 -10z m104 -4 c-3 -5 3 -16 13 -24 18 -14 18 -14 -3 -9 -13 3 -23 1 -23 -5
0 -5 -5 -6 -11 -2 -8 4 -8 9 0 17 6 6 11 16 11 21 0 6 -7 0 -16 -12 -8 -12
-20 -22 -25 -22 -5 0 -2 11 8 24 17 22 59 34 46 12z m117 -4 c0 -4 -10 -9 -22
-9 -18 -2 -20 0 -8 7 18 12 30 13 30 2z m460 -12 c0 -5 -7 -7 -15 -4 -8 4 -15
8 -15 10 0 2 7 4 15 4 8 0 15 -4 15 -10z m-15 -30 c-12 -5 -14 -9 -6 -9 10 -1
7 -9 -10 -28 -13 -14 -18 -23 -11 -19 9 5 15 1 19 -13 3 -12 12 -21 19 -21 8
0 14 -10 14 -22 0 -13 5 -30 10 -38 7 -11 8 -6 5 18 -4 36 9 42 25 12 6 -11
15 -18 19 -16 4 3 7 -9 7 -27 -1 -23 3 -31 14 -29 11 1 9 -2 -4 -13 -14 -11
-16 -18 -8 -28 13 -15 5 -60 -9 -51 -11 6 0 -25 15 -46 9 -12 8 -13 -4 -3 -12
9 -20 7 -38 -7 -21 -17 -21 -19 -5 -29 10 -6 12 -11 6 -11 -7 0 -12 -6 -10
-12 1 -7 -4 -12 -10 -10 -7 1 -13 -3 -13 -9 0 -5 -5 -7 -10 -4 -6 4 -17 1 -25
-5 -8 -7 -15 -9 -15 -4 0 5 -5 1 -11 -9 -5 -9 -7 -22 -3 -28 4 -7 11 -2 18 11
12 25 33 25 28 0 -2 -11 0 -11 8 3 15 24 56 23 56 -2 0 -12 -5 -17 -15 -13 -9
3 -12 1 -7 -6 3 -6 2 -13 -4 -17 -5 -3 -10 -14 -10 -25 0 -10 -7 -21 -16 -24
-11 -4 -15 -2 -11 8 4 10 1 13 -8 10 -7 -3 -16 -12 -19 -20 -7 -17 -20 -18
-38 -1 -15 14 -38 20 -38 10 0 -3 7 -14 15 -23 13 -14 13 -17 0 -17 -8 0 -12
4 -9 8 2 4 0 10 -6 14 -5 3 -10 -2 -10 -11 0 -14 -3 -15 -12 -6 -7 7 -21 12
-33 11 -20 0 -20 0 0 -9 19 -8 19 -9 -2 -9 -13 -1 -23 5 -23 12 0 14 -40 43
-54 39 -5 -2 -3 5 5 14 9 12 9 15 2 10 -9 -5 -13 -1 -13 11 0 10 -3 29 -7 42
-4 17 -3 22 5 17 7 -4 12 -1 12 8 0 9 -5 16 -11 16 -7 0 -9 9 -6 21 4 15 3 19
-4 12 -6 -6 -11 -19 -12 -31 0 -11 -4 -19 -7 -17 -4 2 -5 18 -2 35 2 18 0 30
-7 30 -6 0 -11 7 -11 16 0 14 2 15 17 3 15 -13 15 -12 2 9 -8 12 -15 18 -17
12 -2 -6 -10 -6 -20 -1 -9 5 -25 7 -34 6 -11 -2 -15 2 -11 13 5 11 3 13 -7 7
-9 -6 -11 -4 -5 5 7 11 10 10 19 -1 31 -39 45 9 18 59 -7 12 -10 26 -8 31 3 5
-1 11 -9 15 -8 3 -15 13 -15 22 0 16 1 16 18 1 10 -10 22 -14 27 -10 4 5 2 -2
-4 -14 -8 -16 -8 -23 -1 -23 6 0 8 -4 5 -10 -3 -5 -1 -10 5 -10 6 0 8 -4 5
-10 -3 -5 1 -10 9 -10 22 0 28 16 11 30 -11 9 -12 17 -4 32 8 15 8 22 -1 28
-9 5 -9 9 -1 14 6 4 11 3 11 -2 0 -5 12 -17 26 -27 25 -16 25 -16 14 4 -7 15
-7 21 0 21 7 0 8 6 0 19 -17 32 -12 36 14 12 14 -13 30 -20 38 -16 8 4 7 1 -2
-7 -8 -7 -16 -20 -18 -28 -3 -12 -1 -13 9 -2 19 18 31 14 20 -7 -8 -14 -7 -22
7 -32 14 -11 15 -11 5 0 -14 16 -6 41 12 41 8 0 17 4 20 10 3 6 -1 7 -12 4
-16 -5 -15 -4 1 7 17 10 22 8 40 -14 l21 -26 1 24 c1 14 -2 25 -8 25 -5 0 -6
5 -3 10 10 16 25 1 25 -26 0 -31 14 -31 28 0 10 22 8 26 -10 32 -19 6 -19 8
-5 15 24 14 11 42 -13 29 -15 -8 -20 -6 -25 11 -4 11 -5 22 -3 23 51 34 61 38
55 22 -4 -9 -3 -16 2 -16 5 0 11 9 14 20 3 11 13 20 24 19 16 0 16 -1 -2 -9z
m75 -11 c0 -5 -7 -9 -15 -9 -9 0 -12 6 -9 15 6 15 24 11 24 -6z m323 -66 c-3
-113 -11 -225 -18 -259 -6 -30 -16 -99 -18 -121 0 -7 -4 -13 -9 -13 -5 0 -6
-4 -3 -10 3 -5 1 -10 -5 -10 -6 0 -8 -4 -5 -10 3 -5 2 -10 -4 -10 -5 0 -8 -9
-6 -19 2 -11 -2 -22 -9 -24 -8 -3 -25 -26 -39 -51 -14 -26 -21 -43 -15 -40 7
4 0 -8 -14 -27 -37 -50 -44 -64 -27 -54 11 7 12 6 2 -6 -12 -15 -11 -47 3 -72
4 -6 -10 5 -31 26 -39 39 -55 46 -55 23 0 -8 -8 -13 -17 -12 -11 1 -17 -6 -17
-19 0 -11 6 -19 13 -17 7 1 10 -2 6 -7 -3 -7 -15 -7 -30 -1 -29 11 -37 1 -31
-35 3 -16 1 -23 -6 -19 -5 3 -8 19 -6 35 3 16 0 30 -5 32 -5 1 -11 14 -12 27
-1 14 -3 29 -4 34 0 4 -8 6 -16 3 -8 -4 -17 -2 -20 3 -4 6 -12 10 -18 10 -9 0
-9 -2 0 -8 8 -5 3 -11 -13 -19 -27 -13 -27 -11 17 49 22 31 28 35 31 20 6 -21
38 -26 38 -6 0 7 8 17 17 23 10 5 15 13 11 17 -5 4 -2 14 5 22 8 11 8 14 0 9
-10 -6 -11 -2 -4 32 1 2 8 -3 17 -10 15 -12 16 -11 9 10 -5 17 -4 22 5 16 9
-5 10 -2 5 14 -4 13 -2 21 5 21 6 0 10 6 9 13 -3 24 1 37 12 37 5 0 7 -4 4
-10 -3 -6 1 -7 9 -4 19 7 20 16 4 32 -9 9 -7 12 9 12 20 0 41 32 35 53 -1 5 2
6 8 2 7 -4 9 2 6 19 -3 19 -1 23 11 19 12 -5 14 -3 8 7 -6 9 -4 11 5 5 9 -6
12 -4 8 6 -4 11 1 15 20 15 22 -1 26 4 28 33 8 97 30 177 65 234 10 18 19 40
19 50 0 10 3 16 8 14 4 -3 6 -40 5 -84z m-354 40 c-4 -22 3 -32 16 -27 10 4
15 0 15 -10 0 -13 -4 -15 -19 -6 -11 5 -28 7 -38 4 -16 -5 -16 -4 2 11 20 17
20 17 -2 11 -12 -4 -24 -2 -29 5 -4 7 -3 10 2 7 5 -3 18 -2 29 3 11 4 21 8 23
8 1 1 1 -2 1 -6z m-189 -68 c0 -8 -2 -15 -4 -15 -2 0 -6 7 -10 15 -3 8 -1 15
4 15 6 0 10 -7 10 -15z m-315 -97 c6 -4 2 -8 -7 -8 -10 0 -18 7 -18 17 0 9 3
12 8 7 4 -5 12 -12 17 -16z m28 -58 c8 0 8 -3 0 -11 -14 -14 -33 -3 -33 20 0
26 15 36 18 12 2 -12 8 -21 15 -21z m51 8 c-3 -5 -12 -4 -20 3 -7 6 -11 15 -8
21 3 5 12 4 20 -3 7 -6 11 -15 8 -21z m-564 -8 c0 -5 -2 -10 -4 -10 -3 0 -8 5
-11 10 -3 6 -1 10 4 10 6 0 11 -4 11 -10z m370 -26 c0 -8 -19 -13 -24 -6 -3 5
1 9 9 9 8 0 15 -2 15 -3z m-1550 -74 c0 -5 -2 -10 -4 -10 -3 0 -8 5 -11 10 -3
6 -1 10 4 10 6 0 11 -4 11 -10z m1487 -16 c-3 -3 -12 -4 -19 -1 -8 3 -5 6 6 6
11 1 17 -2 13 -5z m789 -19 c-6 -17 4 -20 22 -5 6 6 10 7 7 4 -3 -4 0 -12 5
-19 7 -8 2 -10 -20 -7 -17 2 -30 6 -30 7 0 9 13 35 17 35 3 0 3 -7 -1 -15z
m-412 -73 c3 -5 -1 -9 -9 -9 -8 0 -12 4 -9 9 3 4 7 8 9 8 2 0 6 -4 9 -8z
m-413 -193 c17 -33 0 -36 -26 -4 -13 17 -24 34 -25 38 0 14 39 -13 51 -34z
m516 35 c-3 -3 -12 -4 -19 -1 -8 3 -5 6 6 6 11 1 17 -2 13 -5z m220 -9 c0 -8
-4 -12 -9 -9 -5 3 -6 10 -3 15 9 13 12 11 12 -6z m-107 -19 c0 -11 -19 -15
-25 -6 -3 5 1 10 9 10 9 0 16 -2 16 -4z m-46 -26 c-10 -4 -21 -6 -24 -3 -8 7
24 22 34 16 5 -4 1 -10 -10 -13z m-500 -19 c14 -5 16 -10 8 -15 -7 -4 -12 -11
-12 -17 0 -15 27 -10 34 6 3 8 12 15 20 15 13 0 14 -4 5 -23 -14 -31 -56 -25
-69 9 -12 30 -23 31 -15 2 4 -16 4 -19 -3 -9 -5 7 -15 10 -22 6 -9 -6 -9 -3
-1 14 12 22 23 25 55 12z m92 -47 c-4 -9 -9 -15 -11 -12 -3 3 -3 13 1 22 4 9
9 15 11 12 3 -3 3 -13 -1 -22z m-296 -94 c0 -13 -7 -20 -20 -20 -19 0 -27 20
-13 33 13 14 33 6 33 -13z m80 -80 c0 -5 -2 -10 -4 -10 -3 0 -8 5 -11 10 -3 6
-1 10 4 10 6 0 11 -4 11 -10z m146 -15 c20 -8 40 -12 45 -9 5 3 9 1 9 -5 0 -5
-22 -23 -49 -40 -57 -34 -71 -28 -78 34 -3 30 0 35 17 35 11 0 37 -7 56 -15z
m484 -25 c0 -5 -2 -10 -4 -10 -3 0 -8 5 -11 10 -3 6 -1 10 4 10 6 0 11 -4 11
-10z m-345 -30 c3 -6 -1 -7 -9 -4 -18 7 -21 14 -7 14 6 0 13 -4 16 -10z m-290
-30 c-3 -5 -10 -10 -16 -10 -5 0 -9 5 -9 10 0 6 7 10 16 10 8 0 12 -4 9 -10z
m95 -4 c0 -11 -19 -15 -25 -6 -3 5 1 10 9 10 9 0 16 -2 16 -4z m358 -15 c3
-10 -2 -11 -19 -6 -36 11 -43 22 -13 21 15 -1 30 -8 32 -15z m-478 -60 c0 -6
-4 -13 -10 -16 -5 -3 -10 1 -10 9 0 9 5 16 10 16 6 0 10 -4 10 -9z m-160 -95
c0 -2 -7 -7 -16 -10 -8 -3 -12 -2 -9 4 6 10 25 14 25 6z m447 -31 c0 -8 -4
-12 -9 -9 -5 3 -6 10 -3 15 9 13 12 11 12 -6z m-42 -55 c10 -11 13 -20 7 -20
-6 0 -16 9 -22 20 -6 11 -9 20 -7 20 2 0 12 -9 22 -20z m-401 -19 c4 -5 -3 -7
-14 -4 -23 6 -26 13 -6 13 8 0 17 -4 20 -9z"/>
<path d="M2345 3121 c-3 -5 -1 -12 5 -16 5 -3 10 1 10 9 0 18 -6 21 -15 7z"/>
<path d="M1850 2840 c0 -5 5 -10 10 -10 6 0 10 5 10 10 0 6 -4 10 -10 10 -5 0
-10 -4 -10 -10z"/>
<path d="M2015 2790 c-3 -5 -1 -10 4 -10 6 0 11 5 11 10 0 6 -2 10 -4 10 -3 0
-8 -4 -11 -10z"/>
<path d="M2930 2790 c0 -5 7 -10 16 -10 8 0 12 5 9 10 -3 6 -10 10 -16 10 -5
0 -9 -4 -9 -10z"/>
<path d="M2951 2754 c0 -11 3 -14 6 -6 3 7 2 16 -1 19 -3 4 -6 -2 -5 -13z"/>
<path d="M2428 2687 c12 -7 20 -16 17 -20 -3 -4 -2 -5 2 -2 19 15 10 35 -15
35 l-27 -1 23 -12z"/>
<path d="M2861 2684 c0 -11 3 -14 6 -6 3 7 2 16 -1 19 -3 4 -6 -2 -5 -13z"/>
<path d="M2492 2678 c-6 -6 -8 -16 -6 -23 3 -7 0 -16 -7 -21 -8 -5 -10 -3 -4
6 6 10 4 11 -6 4 -8 -5 -23 -9 -33 -9 -11 0 -21 -6 -23 -13 -3 -8 1 -10 12 -5
12 4 24 -2 37 -18 11 -13 17 -19 14 -12 -9 16 31 36 58 29 13 -3 31 0 41 8 18
13 17 14 -8 31 -15 9 -34 15 -42 11 -9 -3 -13 -2 -10 3 8 14 -10 22 -23 9z"/>
<path d="M2390 2671 c0 -16 28 -20 34 -5 4 9 -1 14 -14 14 -11 0 -20 -4 -20
-9z"/>
<path d="M3018 2658 c-10 -10 -14 -18 -10 -18 4 0 14 6 20 12 10 10 15 10 21
-1 5 -7 11 -9 14 -4 3 5 -2 14 -11 19 -13 8 -21 6 -34 -8z"/>
<path d="M2210 2655 c7 -8 17 -15 22 -15 5 0 3 7 -6 15 -8 8 -18 15 -22 15 -3
0 -1 -7 6 -15z"/>
<path d="M2345 2659 c-11 -16 -1 -19 13 -3 7 8 8 14 3 14 -5 0 -13 -5 -16 -11z"/>
<path d="M2127 2643 c-4 -6 0 -13 8 -17 8 -3 17 0 21 6 4 6 3 8 -4 4 -5 -3
-12 -1 -14 6 -3 8 -6 9 -11 1z"/>
<path d="M3019 2628 c-5 -18 -6 -38 -1 -34 7 8 12 36 6 36 -2 0 -4 -1 -5 -2z"/>
<path d="M2157 2599 c-10 -11 -16 -24 -13 -27 6 -6 35 27 36 41 0 11 -4 9 -23
-14z"/>
<path d="M2504 2594 c3 -9 6 -18 6 -20 0 -10 49 -2 59 10 9 11 5 15 -20 20
-46 9 -52 8 -45 -10z"/>
<path d="M2670 2600 c0 -5 5 -10 10 -10 6 0 10 5 10 10 0 6 -4 10 -10 10 -5 0
-10 -4 -10 -10z"/>
<path d="M3228 2548 c10 -13 10 -17 0 -21 -9 -4 -7 -6 4 -6 26 -1 29 14 5 29
-20 12 -21 12 -9 -2z"/>
<path d="M3000 2535 c0 -8 2 -15 4 -15 2 0 6 7 10 15 3 8 1 15 -4 15 -6 0 -10
-7 -10 -15z"/>
<path d="M2426 2514 c-4 -10 -1 -14 6 -12 15 5 23 28 10 28 -5 0 -13 -7 -16
-16z"/>
<path d="M1985 2500 c3 -5 11 -10 16 -10 6 0 7 5 4 10 -3 6 -11 10 -16 10 -6
0 -7 -4 -4 -10z"/>
<path d="M3007 2493 c-11 -11 -8 -20 9 -27 11 -4 15 -2 11 8 -3 8 -1 17 6 20
7 2 6 5 -4 5 -9 1 -19 -2 -22 -6z"/>
<path d="M2120 2468 c0 -4 5 -8 11 -8 6 0 9 -7 5 -15 -8 -23 12 -18 40 10 l25
25 -41 -2 c-22 -1 -40 -5 -40 -10z"/>
<path d="M2235 2470 c-3 -5 -1 -10 4 -10 6 0 11 5 11 10 0 6 -2 10 -4 10 -3 0
-8 -4 -11 -10z"/>
<path d="M2249 2443 c-13 -15 -12 -15 9 -4 23 12 28 21 13 21 -5 0 -15 -7 -22
-17z"/>
<path d="M2190 2429 l-25 -20 25 7 c31 8 33 10 29 23 -2 5 -15 1 -29 -10z"/>
<path d="M3251 2434 c0 -11 3 -14 6 -6 3 7 2 16 -1 19 -3 4 -6 -2 -5 -13z"/>
<path d="M2380 2430 c0 -5 4 -10 9 -10 6 0 13 5 16 10 3 6 -1 10 -9 10 -9 0
-16 -4 -16 -10z"/>
<path d="M2025 2410 c3 -5 8 -10 11 -10 2 0 4 5 4 10 0 6 -5 10 -11 10 -5 0
-7 -4 -4 -10z"/>
<path d="M2920 2409 c0 -5 -6 -9 -14 -9 -8 0 -16 -5 -18 -11 -2 -5 -12 -11
-23 -13 -10 -1 -21 -9 -23 -17 -3 -11 -1 -11 7 1 9 13 11 13 11 -2 0 -23 13
-23 34 1 10 11 25 17 37 14 10 -3 19 -1 19 5 0 6 8 12 18 14 12 3 7 7 -15 15
-19 7 -33 8 -33 2z"/>
<path d="M2180 2390 c0 -5 7 -7 15 -4 8 4 15 8 15 10 0 2 -7 4 -15 4 -8 0 -15
-4 -15 -10z"/>
<path d="M2140 2350 c-8 -5 -11 -12 -7 -16 4 -4 15 0 24 9 18 18 8 23 -17 7z"/>
<path d="M2785 2350 c3 -5 8 -10 11 -10 2 0 4 5 4 10 0 6 -5 10 -11 10 -5 0
-7 -4 -4 -10z"/>
<path d="M3145 2350 c3 -5 8 -10 11 -10 2 0 4 5 4 10 0 6 -5 10 -11 10 -5 0
-7 -4 -4 -10z"/>
<path d="M2802 2329 c-16 -25 -15 -28 8 -22 11 3 20 11 20 19 0 22 -15 24 -28
3z"/>
<path d="M2996 2325 c-3 -8 0 -17 6 -21 6 -4 8 -3 4 4 -3 6 2 12 11 14 16 3
17 4 1 10 -10 4 -18 1 -22 -7z"/>
<path d="M2340 2320 c-9 -6 -10 -10 -3 -10 6 0 15 5 18 10 8 12 4 12 -15 0z"/>
<path d="M2744 2312 c3 -5 0 -12 -6 -15 -7 -2 -10 -7 -7 -11 3 -4 12 0 18 8 9
11 9 16 0 22 -7 4 -9 3 -5 -4z"/>
<path d="M3029 2309 c-8 -5 -8 -9 0 -13 6 -4 11 -1 11 6 0 11 2 11 9 0 6 -10
10 -10 20 2 10 12 9 15 -9 13 -11 -1 -26 -4 -31 -8z"/>
<path d="M3211 2311 c-8 -6 -9 -11 -3 -15 6 -3 14 -1 17 5 9 14 2 20 -14 10z"/>
<path d="M2395 2290 c-3 -5 -1 -10 4 -10 6 0 11 5 11 10 0 6 -2 10 -4 10 -3 0
-8 -4 -11 -10z"/>
<path d="M2897 2293 c-4 -3 -7 -11 -7 -17 0 -6 5 -5 12 2 6 6 9 14 7 17 -3 3
-9 2 -12 -2z"/>
<path d="M2966 2292 c-2 -4 7 -9 22 -10 21 -1 24 0 12 8 -18 12 -27 12 -34 2z"/>
<path d="M3187 2279 c4 -13 8 -18 11 -10 2 7 -1 18 -6 23 -8 8 -9 4 -5 -13z"/>
<path d="M3256 2291 c-4 -5 3 -7 14 -4 23 6 26 13 6 13 -8 0 -17 -4 -20 -9z"/>
<path d="M2818 2283 c-21 -5 -24 -23 -4 -23 8 0 16 7 20 15 3 8 4 14 3 14 -1
-1 -10 -3 -19 -6z"/>
<path d="M3150 2286 c0 -2 7 -7 16 -10 8 -3 12 -2 9 4 -6 10 -25 14 -25 6z"/>
<path d="M3267 2253 c-4 -3 -7 -11 -7 -17 0 -6 5 -5 12 2 6 6 9 14 7 17 -3 3
-9 2 -12 -2z"/>
<path d="M3285 2200 c-3 -5 -1 -10 4 -10 6 0 11 5 11 10 0 6 -2 10 -4 10 -3 0
-8 -4 -11 -10z"/>
<path d="M3210 2106 c7 -7 14 -6 21 1 9 9 7 12 -9 10 -14 -1 -18 -5 -12 -11z"/>
<path d="M3301 2084 c10 -12 8 -14 -12 -12 -16 2 -24 -3 -27 -15 -4 -18 -2
-18 30 -1 18 10 36 17 41 16 4 -1 7 3 7 8 0 6 -3 10 -7 11 -5 0 -16 2 -26 4
-15 3 -16 1 -6 -11z"/>
<path d="M3010 1915 c7 -8 16 -12 21 -9 16 9 10 20 -12 21 -17 2 -18 -1 -9
-12z"/>
<path d="M2940 1885 c-11 -13 -10 -14 4 -9 9 3 16 10 16 15 0 13 -6 11 -20 -6z"/>
<path d="M2740 1740 c-12 -7 -12 -12 -2 -22 6 -6 12 -10 13 -7 0 2 2 12 4 22
4 20 4 19 -15 7z"/>
<path d="M2380 1590 c-9 -6 -10 -10 -3 -10 6 0 15 5 18 10 8 12 4 12 -15 0z"/>
<path d="M2316 1374 c-5 -13 -4 -14 7 -6 8 7 18 8 22 4 5 -4 5 -1 1 6 -10 17
-23 15 -30 -4z"/>
<path d="M2360 1324 c0 -4 9 -18 21 -30 19 -20 19 -23 4 -38 -9 -9 -12 -16 -7
-16 17 0 34 29 26 42 -5 7 -9 20 -9 28 0 15 -35 28 -35 14z"/>
<path d="M2446 1255 c-11 -8 -15 -15 -9 -15 6 0 16 7 23 15 16 19 11 19 -14 0z"/>
<path d="M2160 1209 c0 -8 5 -21 10 -29 8 -12 9 -10 7 7 -4 26 -17 43 -17 22z"/>
<path d="M2113 1159 c-5 -16 -8 -18 -15 -7 -8 10 -9 10 -5 -2 2 -8 9 -16 15
-16 7 -1 13 -2 15 -4 1 -1 10 -3 20 -5 15 -3 16 -1 6 11 -8 10 -8 18 -1 27 8
10 6 13 -10 14 -13 1 -22 -5 -25 -18z m21 -15 c3 -8 2 -12 -4 -9 -6 3 -10 10
-10 16 0 14 7 11 14 -7z"/>
<path d="M2191 1166 c-7 -8 0 -11 24 -11 35 0 38 9 6 18 -11 3 -25 0 -30 -7z"/>
<path d="M2366 1064 c-3 -9 -13 -14 -21 -10 -8 3 -14 2 -14 -2 3 -17 -2 -32
-10 -32 -5 0 -7 9 -4 20 3 12 0 20 -7 20 -7 0 -10 -7 -6 -15 4 -12 0 -14 -19
-9 -19 5 -25 2 -25 -10 0 -12 7 -15 24 -12 14 2 26 0 28 -6 2 -6 13 -5 30 3
15 6 25 17 22 23 -3 6 0 4 8 -5 9 -11 20 -14 33 -9 11 4 23 5 28 3 10 -6 4 18
-8 33 -7 9 -12 9 -18 0 -5 -8 -11 -6 -21 7 -12 16 -14 16 -20 1z"/>
<path d="M2229 1043 c-1 -5 -1 -11 0 -15 2 -12 -13 -10 -26 3 -8 8 -13 8 -17
0 -4 -6 -6 -11 -4 -12 2 0 10 -2 18 -4 8 -2 24 -6 35 -10 12 -4 15 -3 9 2 -6
4 -10 16 -8 26 1 9 0 17 -2 17 -2 0 -5 -3 -5 -7z"/>
<path d="M2166 967 c3 -10 9 -15 12 -12 3 3 0 11 -7 18 -10 9 -11 8 -5 -6z"/>
<path d="M2240 929 c0 -5 5 -7 10 -4 6 3 10 8 10 11 0 2 -4 4 -10 4 -5 0 -10
-5 -10 -11z"/>
<path d="M2195 909 c-5 -7 -4 -10 3 -5 6 3 13 2 16 -3 4 -5 20 -7 37 -4 21 3
29 1 24 -6 -3 -6 -1 -11 4 -11 6 0 11 7 11 16 0 12 -8 15 -34 11 -19 -3 -39 0
-44 5 -6 6 -12 5 -17 -3z"/>
<path d="M2659 1078 c-9 -29 -6 -37 10 -28 12 6 22 5 29 -2 7 -7 12 -9 12 -6
0 16 -47 48 -51 36z"/>
<path d="M1775 420 c3 -5 8 -10 11 -10 2 0 4 5 4 10 0 6 -5 10 -11 10 -5 0 -7
-4 -4 -10z"/>
<path d="M1621 3544 c0 -11 3 -14 6 -6 3 7 2 16 -1 19 -3 4 -6 -2 -5 -13z"/>
<path d="M1182 3541 c-10 -6 -10 -10 2 -20 12 -10 15 -9 13 8 -1 12 -1 21 -2
21 0 0 -6 -4 -13 -9z"/>
<path d="M1216 3542 c-3 -5 1 -9 9 -9 8 0 12 4 9 9 -3 4 -7 8 -9 8 -2 0 -6 -4
-9 -8z"/>
<path d="M1505 3540 c3 -5 8 -10 11 -10 2 0 4 5 4 10 0 6 -5 10 -11 10 -5 0
-7 -4 -4 -10z"/>
<path d="M1545 3540 c3 -5 11 -10 16 -10 6 0 7 5 4 10 -3 6 -11 10 -16 10 -6
0 -7 -4 -4 -10z"/>
<path d="M2376 3533 c13 -10 10 -69 -4 -66 -6 1 -4 -11 5 -27 8 -17 16 -30 17
-30 2 0 2 28 2 62 -1 45 -5 62 -16 65 -9 3 -11 1 -4 -4z"/>
<path d="M2435 3529 c-4 -6 -5 -12 -2 -15 2 -3 7 2 10 11 7 17 1 20 -8 4z"/>
<path d="M2314 3514 c-10 -8 -13 -12 -5 -8 9 5 12 1 8 -12 -3 -11 1 -32 8 -49
11 -22 13 -24 9 -6 -4 16 -2 21 5 17 7 -5 10 6 8 33 -2 46 -5 48 -33 25z"/>
<path d="M1881 3476 c-8 -9 -11 -19 -7 -23 3 -3 6 0 6 8 0 12 2 12 9 0 7 -10
12 -11 27 -1 15 9 15 10 2 6 -10 -3 -18 1 -20 11 -3 15 -4 14 -17 -1z"/>
<path d="M1946 3482 c-3 -5 1 -9 9 -9 8 0 12 4 9 9 -3 4 -7 8 -9 8 -2 0 -6 -4
-9 -8z"/>
<path d="M2064 3482 c6 -11 -5 -16 -26 -14 -3 1 -9 -5 -12 -14 -5 -12 -2 -13
15 -3 17 9 23 8 30 -2 6 -10 9 -8 9 8 0 12 -5 25 -12 29 -7 4 -8 3 -4 -4z"/>
<path d="M2670 3473 c0 -13 5 -23 10 -23 13 0 13 11 0 30 -8 12 -10 11 -10 -7z"/>
<path d="M2239 3478 c-6 -27 -6 -38 2 -38 5 0 9 -5 9 -11 0 -8 -5 -7 -15 1
-19 16 -29 7 -31 -28 -2 -40 -3 -44 -12 -38 -11 6 -52 -21 -52 -35 0 -5 7 -9
15 -9 8 0 15 -5 15 -11 0 -5 -5 -7 -10 -4 -7 4 -10 -7 -8 -30 1 -20 6 -39 12
-42 5 -4 7 3 4 15 -3 12 1 29 9 39 14 17 14 17 9 1 -3 -10 0 -18 5 -18 7 0 9
11 7 25 -3 13 -1 22 3 19 10 -6 69 27 69 38 0 4 7 8 15 8 8 0 19 9 25 20 6 11
15 20 21 20 6 0 7 -4 4 -10 -3 -5 -1 -10 4 -10 6 0 11 -5 11 -11 0 -6 -8 -8
-19 -4 -14 4 -21 -2 -31 -26 -11 -24 -18 -30 -37 -26 -12 2 -30 -1 -38 -7 -12
-10 -12 -14 1 -31 15 -20 15 -20 35 5 12 14 17 18 13 10 -4 -8 -13 -22 -21
-31 -14 -17 -8 -49 9 -49 5 0 6 -4 3 -10 -4 -6 4 -6 21 0 21 8 29 8 36 -2 6
-10 8 -9 8 4 0 9 -5 18 -12 20 -8 3 -9 11 -3 24 4 10 9 22 9 26 1 3 4 10 9 14
4 4 7 17 7 28 0 17 2 18 10 6 8 -13 10 -12 10 3 0 20 37 56 56 57 7 0 15 7 18
16 10 27 7 27 -19 1 -27 -27 -65 -27 -65 0 0 10 6 13 16 9 8 -3 12 -2 9 4 -3
6 -17 7 -30 4 -20 -5 -24 -1 -30 25 -4 17 -11 28 -16 25 -6 -3 -8 -13 -5 -21
4 -10 2 -13 -8 -10 -8 3 -17 1 -19 -6 -3 -7 -4 1 -4 17 1 16 -4 31 -10 33 -7
3 -13 3 -14 1z m56 -68 c-3 -5 -12 -10 -18 -10 -7 0 -6 4 3 10 19 12 23 12 15
0z m-52 -20 c-3 -11 -9 -20 -15 -20 -5 0 -4 9 2 20 6 11 12 20 14 20 2 0 2 -9
-1 -20z"/>
<path d="M1631 3457 c-12 -15 -5 -27 16 -27 7 0 13 9 13 20 0 23 -13 26 -29 7z"/>
<path d="M2122 3450 c-7 -11 -18 -19 -25 -17 -6 1 -11 -4 -9 -10 1 -7 -2 -13
-7 -13 -22 0 -18 -28 5 -39 14 -6 23 -7 20 -2 -3 5 1 14 10 21 12 10 12 15 2
21 -9 6 -7 13 10 27 22 20 28 32 14 32 -4 0 -13 -9 -20 -20z m-12 -50 c0 -5
-7 -10 -16 -10 -8 0 -12 5 -9 10 3 6 10 10 16 10 5 0 9 -4 9 -10z"/>
<path d="M1828 3453 c6 -2 9 -10 6 -15 -4 -7 -2 -8 5 -4 13 9 5 26 -12 25 -9
0 -8 -2 1 -6z"/>
<path d="M2160 3434 c0 -9 -5 -12 -12 -8 -10 5 -10 4 -1 -6 9 -10 15 -10 27 3
14 13 14 16 1 21 -9 3 -15 -1 -15 -10z"/>
<path d="M1915 3430 c-3 -6 1 -7 9 -4 18 7 21 14 7 14 -6 0 -13 -4 -16 -10z"/>
<path d="M1808 3375 c-9 -25 -12 -45 -7 -45 4 0 11 15 14 33 4 17 12 38 17 45
7 8 7 12 0 12 -5 0 -16 -20 -24 -45z"/>
<path d="M1880 3411 c0 -5 7 -12 16 -15 21 -8 24 -8 24 5 0 5 -4 7 -10 4 -5
-3 -10 -1 -10 4 0 6 -4 11 -10 11 -5 0 -10 -4 -10 -9z"/>
<path d="M2166 3388 c-9 -13 -14 -18 -11 -11 6 13 -11 28 -19 15 -2 -4 -1 -14
3 -21 10 -16 45 0 55 24 8 23 -9 18 -28 -7z"/>
<path d="M1854 3373 c3 -7 1 -13 -4 -13 -6 0 -10 -4 -10 -9 0 -5 10 -8 23 -7
18 1 22 6 19 22 -2 11 -10 21 -18 21 -8 0 -13 -6 -10 -14z"/>
<path d="M1923 3365 c0 -8 4 -15 9 -15 4 0 8 4 8 9 0 6 -4 12 -8 15 -5 3 -9
-1 -9 -9z"/>
<path d="M2066 3347 c3 -10 9 -15 12 -12 3 3 0 11 -7 18 -10 9 -11 8 -5 -6z"/>
<path d="M1860 3281 c-7 -15 -7 -21 0 -21 12 0 25 28 17 36 -3 3 -10 -4 -17
-15z"/>
<path d="M2336 3281 c-3 -5 1 -11 9 -15 8 -3 15 -1 15 4 0 13 -18 22 -24 11z"/>
<path d="M903 3253 c4 -3 1 -13 -6 -22 -11 -14 -10 -14 6 -2 20 15 22 31 5 31
-6 0 -8 -3 -5 -7z"/>
<path d="M2097 3253 c-4 -3 -7 -13 -7 -22 0 -11 3 -11 16 5 8 10 13 14 10 7
-9 -18 4 -43 23 -43 14 1 14 2 1 13 -9 7 -14 20 -12 30 3 17 -18 24 -31 10z"/>
<path d="M2336 3247 c3 -10 9 -15 12 -12 3 3 0 11 -7 18 -10 9 -11 8 -5 -6z"/>
<path d="M1788 3225 c-3 -14 -1 -25 3 -25 5 0 9 9 9 21 0 13 4 18 12 13 7 -4
8 -3 4 4 -12 19 -23 14 -28 -13z"/>
<path d="M2047 3232 c-10 -10 -17 -29 -17 -43 1 -21 2 -22 11 -6 5 9 7 22 4
27 -8 13 8 13 21 1 6 -6 9 -1 9 15 0 29 -6 30 -28 6z"/>
<path d="M2191 3218 c8 -15 13 -17 25 -7 8 6 14 16 14 22 0 6 -7 2 -16 -9 -11
-13 -14 -14 -11 -3 3 9 -1 16 -8 16 -11 0 -11 -5 -4 -19z"/>
<path d="M864 3176 c-8 -22 3 -33 18 -18 9 9 9 15 0 24 -9 9 -13 7 -18 -6z"/>
<path d="M2126 3178 c3 -4 9 -8 15 -8 5 0 9 4 9 8 0 5 -7 9 -15 9 -8 0 -12 -4
-9 -9z"/>
<path d="M1060 3150 c-6 -11 -8 -20 -6 -20 3 0 10 9 16 20 6 11 8 20 6 20 -3
0 -10 -9 -16 -20z"/>
<path d="M995 3060 c-17 -33 -19 -44 -6 -36 10 6 33 66 26 66 -3 0 -11 -13
-20 -30z"/>
<path d="M1070 3075 c0 -8 2 -15 4 -15 2 0 6 7 10 15 3 8 1 15 -4 15 -6 0 -10
-7 -10 -15z"/>
<path d="M846 2837 c3 -10 9 -15 12 -12 3 3 0 11 -7 18 -10 9 -11 8 -5 -6z"/>
<path d="M808 2803 c-21 -5 -23 -19 -4 -26 14 -5 36 10 36 25 0 8 -4 9 -32 1z"/>
<path d="M270 1971 c0 -6 4 -13 10 -16 6 -3 7 1 4 9 -7 18 -14 21 -14 7z"/>
<path d="M455 1960 c-3 -5 -2 -10 4 -10 5 0 13 5 16 10 3 6 2 10 -4 10 -5 0
-13 -4 -16 -10z"/>
<path d="M396 1921 c-4 -7 -5 -15 -2 -18 9 -9 19 4 14 18 -4 11 -6 11 -12 0z"/>
<path d="M410 1818 c0 -22 16 -48 30 -48 3 0 5 15 4 32 -1 40 -34 55 -34 16z"/>
<path d="M466 1705 c-3 -8 -1 -15 3 -15 5 0 11 7 15 15 3 8 1 15 -3 15 -5 0
-11 -7 -15 -15z"/>
<path d="M530 1676 c0 -9 5 -16 10 -16 6 0 10 4 10 9 0 6 -4 13 -10 16 -5 3
-10 -1 -10 -9z"/>
<path d="M667 1466 c-4 -10 -1 -13 8 -9 8 3 12 9 9 14 -7 12 -11 11 -17 -5z"/>
<path d="M741 1403 c7 -12 15 -20 18 -17 3 2 -3 12 -13 22 -17 16 -18 16 -5
-5z"/>
<path d="M1267 1324 c-3 -4 -24 -6 -47 -6 -22 0 -40 -4 -40 -10 0 -6 8 -8 18
-6 10 3 23 -1 30 -8 15 -17 16 -27 1 -18 -7 4 -2 -7 11 -24 18 -24 25 -28 35
-19 10 10 10 13 -4 19 -9 4 -10 7 -3 7 6 1 12 6 12 12 0 6 -6 9 -13 6 -8 -3
-13 3 -13 14 0 22 12 25 19 7 3 -7 6 -3 6 10 1 23 -1 26 -12 16z"/>
<path d="M1151 1284 c13 -16 29 -19 29 -5 0 5 -9 11 -21 14 -16 4 -18 3 -8 -9z"/>
<path d="M1260 250 c0 -5 5 -10 11 -10 5 0 7 5 4 10 -3 6 -8 10 -11 10 -2 0
-4 -4 -4 -10z"/>
</g>
</svg>
